<svg width="160" height="31" viewBox="0 0 160 31" fill="#ece2d2" xmlns="http://www.w3.org/2000/svg">
<path d="M110.641 29.5143C111.31 30.0456 112.143 30.3283 112.998 30.3141C114.272 30.3141 114.998 29.6405 114.998 28.8617C114.998 28.0829 114.45 27.6304 113.503 27.5251C112.556 27.4199 112.03 27.5251 111.64 27.1989C111.574 27.1549 111.519 27.0956 111.481 27.026C111.443 26.9563 111.421 26.8785 111.419 26.799C111.419 26.4201 111.883 26.1043 112.598 26.1043C113.269 26.1148 113.916 26.3564 114.429 26.7884L114.756 26.3148C114.129 25.8471 113.37 25.5893 112.588 25.5781C111.535 25.5781 110.841 26.1254 110.841 26.8305C110.849 27.0299 110.914 27.2228 111.027 27.3868C111.141 27.5507 111.299 27.679 111.483 27.7567C112.084 27.951 112.713 28.047 113.345 28.0408C114.051 28.104 114.398 28.4302 114.398 28.8512C114.398 29.2722 113.851 29.7984 112.988 29.7984C112.248 29.7729 111.537 29.5027 110.967 29.0301L110.641 29.5143ZM105.6 30.1983H106.157V26.1991H108.062V25.6728H103.695V26.1991H105.6V30.1983ZM96.9065 30.1983H97.4643V26.82L100.411 30.1983H100.695V25.6728H100.127V29.0196L97.2012 25.6413H96.9065V30.1983ZM89.8132 30.1983H93.5493V29.6721H90.392V28.0408H92.2022V27.5251H90.392V26.1991H93.3914V25.6728H89.8342V30.1983H89.8132ZM81.5306 30.1983H82.12V26.6621L83.9196 29.3459L85.7087 26.6621V30.1983H86.2665V25.6728H85.7508L83.9196 28.4408L82.0884 25.6728H81.5727L81.5306 30.1983ZM76.0791 30.1983H76.6368V26.1991H78.5417V25.6728H74.1742V26.1991H76.0791V30.1983ZM67.8912 27.6935V26.1991H69.9119C70.4591 26.1991 70.7433 26.4832 70.7433 26.9463C70.7433 27.4094 70.4591 27.6935 69.8803 27.6935H67.8912ZM67.3229 30.1983H67.8912V28.2197H69.6382L70.7748 30.1983H71.3958L70.2592 28.2092C70.5583 28.1587 70.8292 28.0023 71.0225 27.7684C71.2157 27.5346 71.3183 27.239 71.3116 26.9358C71.3116 26.1464 70.7854 25.6728 69.9013 25.6728H67.3229V30.1983ZM60.6926 28.4513L61.6819 26.4516L62.6712 28.4513H60.6926ZM59.2298 30.1983H59.8296L60.4295 28.9775H62.9238L63.5342 30.1983H64.1551L61.9134 25.6728H61.4398L59.2298 30.1983ZM53.7572 27.6935V26.1991H55.8094C56.3461 26.1991 56.6408 26.4832 56.6408 26.9463C56.6408 27.4094 56.3461 27.6935 55.7778 27.6935H53.7572ZM53.1888 30.1983H53.7572V28.2197H55.862C56.0379 28.2318 56.2144 28.2065 56.3799 28.1456C56.5454 28.0847 56.6962 27.9896 56.8223 27.8664C56.9485 27.7432 57.0473 27.5947 57.1121 27.4307C57.1769 27.2667 57.2064 27.0909 57.1986 26.9147C57.1986 26.157 56.6724 25.6834 55.7883 25.6834H53.1888V30.2089V30.1983ZM46.548 28.4513L47.5373 26.4516L48.5897 28.4513H46.548ZM45.0957 30.1983H45.6956L46.3376 29.0196H48.8318L49.4422 30.2404H50.0526L47.8215 25.7149H47.3479L45.0957 30.1983Z" fill="#6F6F90"></path>
<path d="M9.54374 5.93915L14.1135 13.0084H5.50188L9.54374 5.93915ZM12.4308 0L4.28932 14.1055L0.536165 19.0548H0V19.393H7.54756V19.0548H6.90416L4.85848 14.1055L5.18843 13.5198H14.394L16.7779 17.2235L14.6992 19.0465H14.0228V19.3847H26.6845V19.0465H26.1484L23.9625 17.3225L12.934 0H12.4308ZM65.3627 0.569171H66.0638L68.8189 2.42516L80.0701 19.6487H80.6558L88.3188 4.30589L91.4616 0.569171H92.1627V0.239217H84.1945V0.569171H84.8379L87.7826 4.33063L83.2376 13.3631L76.1437 2.42516L79.006 0.569171H79.6989V0.239217H65.3627V0.569171ZM98.2255 0.569171H98.9266L101.987 2.42516V17.1823L99.0174 19.0383H98.3162V19.3682H121.264L121.66 11.5731H121.404L121.347 12.1918L115.234 18.8651H108.19V9.65937H111.333L114.979 12.6125V14.0972H115.284V4.24815H114.979V5.33699L111.275 9.1562H108.19V0.742396H115.201L121.066 6.74754V7.25072H121.347V0.239217H98.2255V0.569171ZM132.392 0.602167H133.117L136.178 2.47465V17.24L133.175 19.063H132.499V19.3682H147.346C154.812 19.3682 160 15.5573 160 9.97283C160 4.38837 154.869 0.239217 147.965 0.239217H132.392V0.602167ZM146.67 0.742396C148.971 0.742396 150.176 1.13009 151.215 2.25193C152.675 3.79446 153.294 6.18662 153.294 10.1378C153.294 16.2007 151.38 18.8651 147.033 18.8651H142.381V0.71765L146.67 0.742396ZM52.7917 5.36999C52.7917 8.48804 51.0759 9.97283 47.4878 9.97283H42.7448V0.767141H47.265C50.9687 0.767141 52.7917 2.26018 52.7917 5.36999ZM61.9395 19.393V19.0548H61.1146L58.0543 17.1741L54.6311 11.3339L53.765 9.89859C57.1882 9.13145 59.0194 7.63842 59.0194 5.51847C58.9644 4.73289 58.7017 3.97602 58.2582 3.32527C57.8147 2.67452 57.2064 2.15324 56.4953 1.81474C54.9528 0.915617 52.008 0.272213 49.1705 0.272213H32.8711V0.643407H33.5145L36.5417 2.47465V17.2318L33.5145 19.1125H32.8711V19.4425H46.4484V19.1125H45.8298L42.7448 17.2565V10.476H47.0176L52.2967 19.4342L61.9395 19.393Z" fill="#6F6F90"></path>
</svg>