<svg width="104" height="80" viewBox="0 0 104 80" fill="#1f1f29" xmlns="http://www.w3.org/2000/svg">
<path d="M67.4304 27.2539L59.9968 24.1436L61.3576 22.3863H67.1349L67.4304 27.2539ZM67.0727 21.2588H61.7386L63.0449 17.3087L66.7306 15.7536L67.0727 21.2588ZM66.6528 14.5561L63.3171 15.9402L61.3887 12.5111L66.2019 7.66686L66.6528 14.5561ZM65.4943 6.78043L60.8288 11.4459L58.3251 6.99037L59.4448 4.26887L65.4943 6.78043ZM58.3484 3.84898L56.9643 7.18476L52.2989 9.35419V1.36853L58.3484 3.84898ZM56.0157 24.0658L55.5102 23.6693L55.0748 24.2136L52.2678 24.6568V10.6605L57.6486 8.15673L62.2051 16.259L60.3623 21.8653L59.0404 23.5682L56.0934 18.8095L56.2723 16.5545L58.3095 16.3446L59.2037 15.6992L59.5614 15.7847L59.1959 16.9355L60.4634 15.3804L58.6905 14.1907L56.7544 14.8127L56.9099 14.214L55.6036 10.6527L55.6969 14.2684L55.1681 16.2901L54.8182 20.6601L55.969 20.7223L58.3873 24.6957L57.9596 28.8168L56.28 29.9832L52.3222 28.6924V27.2539L53.0998 26.2975L54.8415 25.6521L56.0157 24.0658ZM53.9629 30.473L56.4356 31.2506V31.6627L53.5896 34.5086H49.8728L47.0269 31.6627V31.2506L49.4996 30.473H53.9629ZM51.117 28.7157L47.1591 30.0065L45.4796 28.8324L45.0519 24.719L47.4702 20.7456L48.6287 20.6756L48.2711 16.3135L47.7423 14.2918L47.8356 10.6761L46.5293 14.2373L46.6848 14.8361L44.7487 14.214L42.9758 15.4037L44.2432 16.9588L43.8778 15.808L44.2355 15.7225L45.0986 16.3679L47.1358 16.5778L47.3069 18.8095L44.4298 23.5682L43.108 21.8653L41.2651 16.259L45.7828 8.15673L51.1014 10.6294V24.6724L48.3177 24.2525L47.8823 23.7082L47.3768 24.1047L48.6287 25.6599L50.3627 26.3053L51.1403 27.2617L51.117 28.7157ZM51.117 9.35419L46.4515 7.18476L45.0519 3.84898L51.1014 1.36853L51.117 9.35419ZM43.9944 4.28442L45.1219 7.00592L42.6103 11.4692L37.9449 6.80375L43.9944 4.28442ZM37.1751 7.66686L42.0194 12.5111L40.0754 15.9402L36.7397 14.5561L37.1751 7.66686ZM36.6541 15.7769L40.3398 17.3321L41.6461 21.2821H36.3198L36.6541 15.7769ZM42.0194 22.4174L43.3801 24.1747L35.9543 27.285L36.2498 22.4407L42.0194 22.4174ZM36.4442 28.3036L43.9244 25.1933L44.2121 27.9848L40.542 31.6705L36.4442 28.3036ZM41.4517 32.4092L44.3676 29.4933L45.775 30.473V32.1992L46.3116 32.7358L45.2074 35.4806L41.4517 32.4092ZM46.1172 36.2504L47.2058 33.6067L49.2974 35.7061H51.0703V40.3171L46.1172 36.2504ZM52.26 35.7061H54.0329L56.1245 33.6067L57.2209 36.2504L52.26 40.3171V35.7061ZM58.154 35.4806L57.011 32.7202L57.5475 32.1837L57.6486 30.473L59.0482 29.5088L61.9641 32.4247L58.154 35.4806ZM62.8194 31.6705L59.2037 28.0004L59.4992 25.2089L66.9716 28.3192L62.8194 31.6705ZM68.5346 28.0781L67.2049 6.36831L51.7546 0L36.3042 6.36831L34.9668 28.1403L51.7546 41.95L68.5346 28.0781Z" fill="#6F6F90"></path>
<path fill-rule="evenodd" clip-rule="evenodd" d="M9.12965 66.3648L6.17359 61.792L3.55902 66.3648H9.12965ZM2.77465 67.0745L8.04114 57.9502H8.36662L15.5007 69.1555L16.9147 70.2707H17.2615V70.4895H9.07096V70.2707H9.5085L10.8531 69.0915L9.31107 66.6957H3.35625L3.14282 67.0745L4.46611 70.276H4.88231V70.4948H0V70.276H0.346831L2.77465 67.0745ZM42.7349 58.3184H42.2813V58.1049H51.5551V58.3184H51.1068L49.2553 59.5189L53.8441 66.5943L56.7842 60.7515L54.8793 58.3184H54.4631V58.1049H59.6175V58.3184H59.164L57.131 60.7355L52.174 70.6602H51.7952L44.5171 59.5189L42.7349 58.3184ZM63.9929 58.3184H63.5394V58.1049H78.4958V62.6404H78.3144V62.3149L74.5206 58.4304H69.9851V63.873H71.9807L74.3765 61.4025V60.6982H74.5739V67.0692H74.3765V66.1087L72.0181 64.1985H69.9851V70.1533H74.5419L78.4958 65.8366L78.5331 65.4364H78.6986L78.4424 70.4788H63.5981V70.2654H64.0516L65.9725 69.0648V59.5189L63.9929 58.3184ZM86.1101 58.3397H85.6405V58.1049H95.7146C100.181 58.1049 103.5 60.7889 103.5 64.4012C103.5 68.0136 100.143 70.4788 95.3144 70.4788H85.7099V70.2814H86.1474L88.0897 69.1021V59.551L86.1101 58.3397ZM97.8169 59.4069C97.1446 58.6812 96.3656 58.4304 94.8769 58.4304L92.1022 58.4144V70.1533H95.1117C97.9237 70.1533 99.1616 68.4298 99.1616 64.508C99.1616 61.9521 98.7614 60.4047 97.8169 59.4069ZM30.7185 64.4012C33.0396 64.4012 34.1495 63.4408 34.1495 61.4238C34.1495 59.4122 32.9703 58.4464 30.5745 58.4464H27.6504V64.4012H30.7185ZM40.067 70.276V70.4948L33.8293 70.5215L30.4144 64.7267H27.6504V69.1128L29.646 70.3134H30.0462V70.5268H21.2634V70.3134H21.6796L23.6378 69.0968V59.551L21.6796 58.3664H21.2634V58.1263H31.807C33.6426 58.1263 35.5475 58.5425 36.5453 59.1241C37.0052 59.343 37.3988 59.6802 37.6857 60.1012C37.9725 60.5221 38.1425 61.0117 38.1781 61.5199C38.1781 62.8912 36.9935 63.857 34.7791 64.3532L35.3394 65.2817L37.5538 69.0595L39.5334 70.276H40.067ZM68.4816 79.95C68.0483 79.9571 67.6259 79.8138 67.2864 79.5444L67.4518 79.299C67.7408 79.5386 68.1011 79.6756 68.4763 79.6885C68.9138 79.6885 69.1913 79.4217 69.1913 79.2083C69.1913 78.9948 69.0152 78.8294 68.6577 78.7974C68.3372 78.8005 68.0183 78.7519 67.7133 78.6534C67.6201 78.614 67.54 78.5489 67.4824 78.4658C67.4248 78.3827 67.392 78.2849 67.3878 78.1838C67.3878 77.8263 67.74 77.5488 68.2735 77.5488C68.6701 77.5545 69.0548 77.6852 69.3727 77.9223L69.2073 78.1624C68.947 77.9434 68.619 77.8209 68.2789 77.8156C67.916 77.8156 67.6813 77.9757 67.6813 78.1678C67.6823 78.2081 67.693 78.2476 67.7125 78.2829C67.732 78.3182 67.7597 78.3482 67.7933 78.3705C67.9313 78.4861 68.1031 78.4949 68.358 78.5079C68.4678 78.5135 68.5931 78.5199 68.7378 78.536C69.218 78.5893 69.4955 78.8188 69.4955 79.2136C69.4955 79.6085 69.1273 79.95 68.4816 79.95ZM65.0133 79.8913H64.7305V77.8636H63.7647V77.5968H65.9791V77.8636H65.0133V79.8913ZM60.6059 79.8913H60.3231V77.5808H60.4725L61.9559 79.2937V77.5968H62.244V79.8913H62.1L60.6059 78.1785V79.8913ZM58.621 79.8913H56.7374V77.5968H58.5409V77.8636H57.0202V78.536H57.938V78.7974H57.0202V79.6245H58.621V79.8913ZM52.8262 79.8913H52.5274L52.5488 77.5968H52.8102L53.7387 79.0002L54.6671 77.5968H54.9286V79.8913H54.6458V78.0984L53.7387 79.4591L52.8262 78.0984V79.8913ZM50.0463 79.8913H49.7635V77.8636H48.7977V77.5968H51.012V77.8636H50.0463V79.8913ZM46.6366 77.8636H45.6122V78.6213H46.6206C46.9141 78.6213 47.0582 78.4773 47.0582 78.2425C47.0582 78.0077 46.9141 77.8636 46.6366 77.8636ZM45.6122 79.8913H45.324V77.5968H46.6313C47.0795 77.5968 47.3463 77.837 47.3463 78.2372C47.3497 78.3909 47.2977 78.5408 47.1997 78.6593C47.1018 78.7779 46.9644 78.8572 46.8127 78.8828L47.389 79.8913H47.0742L46.4979 78.8881H45.6122V79.8913ZM42.464 77.9917L41.9624 79.0055H42.9656L42.464 77.9917ZM41.5249 79.8913H41.2207L42.3413 77.5968H42.5814L43.7179 79.8913H43.4031L43.0936 79.2723H41.829L41.5249 79.8913ZM38.4461 77.8636V78.6213H39.4706C39.7587 78.6213 39.9081 78.4773 39.9081 78.2425C39.9081 78.0077 39.7587 77.8636 39.4866 77.8636H38.4461ZM38.4461 79.8913H38.158V77.6022H39.4759C39.9241 77.6022 40.1909 77.8423 40.1909 78.2265C40.1949 78.3158 40.1799 78.4049 40.1471 78.4881C40.1142 78.5712 40.0641 78.6465 40.0002 78.709C39.9362 78.7714 39.8598 78.8197 39.7759 78.8505C39.6919 78.8814 39.6025 78.8942 39.5133 78.8881H38.4461V79.8913ZM35.2926 77.9917L34.791 79.0055H35.8262L35.2926 77.9917ZM34.3588 79.8913H34.0547L35.1966 77.6182H35.4367L36.5679 79.9126H36.2584L35.9489 79.2937H34.6843L34.3588 79.8913Z" fill="#6F6F90"></path>
</svg>